<svg width="32" height="32" viewBox="0 0 32 32" fill="none" xmlns="http://www.w3.org/2000/svg">
<path d="M20.1424 0.843087L16.9853 0L14.3248 9.89565L11.9228 0.961791L8.76555 1.80488L11.3608 11.4573L4.8967 5.01518L2.58549 7.31854L9.67576 14.3848L0.845959 12.0269L0 15.1733L9.64767 17.7496C9.53721 17.2748 9.47877 16.7801 9.47877 16.2717C9.47877 12.6737 12.4055 9.75685 16.0159 9.75685C19.6262 9.75685 22.5529 12.6737 22.5529 16.2717C22.5529 16.7768 22.4952 17.2685 22.3861 17.7405L31.1541 20.0818L32 16.9354L22.314 14.3489L31.1444 11.9908L30.2984 8.84437L20.6128 11.4308L27.0768 4.98873L24.7656 2.68538L17.7737 9.65357L20.1424 0.843087Z" fill="#007B84"/>
<path d="M22.3776 17.7773C22.1069 18.9178 21.5354 19.9424 20.7513 20.7633L27.1033 27.0937L29.4145 24.7904L22.3776 17.7773Z" fill="#007B84"/>
<path d="M20.6871 20.8291C19.8936 21.6369 18.8907 22.2397 17.7661 22.5503L20.0775 31.1471L23.2346 30.304L20.6871 20.8291Z" fill="#007B84"/>
<path d="M17.6481 22.5823C17.1264 22.716 16.5795 22.7871 16.0159 22.7871C15.4121 22.7871 14.8274 22.7055 14.2723 22.5527L11.9588 31.1574L15.1159 32.0004L17.6481 22.5823Z" fill="#007B84"/>
<path d="M14.1607 22.5201C13.0533 22.194 12.0682 21.5835 11.2909 20.7734L4.92326 27.1194L7.23447 29.4228L14.1607 22.5201Z" fill="#007B84"/>
<path d="M11.2378 20.7175C10.4737 19.9023 9.91721 18.8914 9.65231 17.7686L0.855743 20.1176L1.7017 23.264L11.2378 20.7175Z" fill="#007B84"/>
</svg>
