<svg width="30" height="30" viewBox="0 0 30 30" fill="none" xmlns="http://www.w3.org/2000/svg">
<path d="M26.512 19.8621C25.7168 21.7427 24.473 23.3999 22.8894 24.6887C21.3057 25.9776 19.4305 26.8589 17.4276 27.2556C15.4247 27.6523 13.3551 27.5523 11.3997 26.9644C9.44436 26.3764 7.66281 25.3184 6.2108 23.8829C4.75879 22.4474 3.68055 20.6781 3.07032 18.7295C2.4601 16.781 2.33648 14.7127 2.71027 12.7054C3.08407 10.6981 3.9439 8.81289 5.21458 7.21465C6.48527 5.6164 8.12813 4.35376 9.99953 3.53711" stroke="#007B84" stroke-width="2" stroke-linecap="round" stroke-linejoin="round"/>
<path d="M27.5 15C27.5 13.3585 27.1767 11.733 26.5485 10.2165C25.9203 8.69989 24.9996 7.3219 23.8388 6.16117C22.6781 5.00043 21.3001 4.07969 19.7835 3.45151C18.267 2.82332 16.6415 2.5 15 2.5V15H27.5Z" stroke="#007B84" stroke-width="2" stroke-linecap="round" stroke-linejoin="round"/>
</svg>
